HIERARCHY
ROOT root
{
	OFFSET 0.000000 0.000000 0.000000
	CHANNELS 6 Xposition Yposition Zposition Zrotation Yrotation Xrotation
	JOINT lhip
	{
		OFFSET 0.058581 -0.082280 -0.017664
		CHANNELS 3 Zrotation Yrotation Xrotation
		JOINT lknee
		{
			OFFSET 0.043451 -0.386469 0.008037
			CHANNELS 3 Zrotation Yrotation Xrotation
			JOINT lankle
			{
				OFFSET -0.014790 -0.426874 -0.037428
				CHANNELS 3 Zrotation Yrotation Xrotation
				JOINT ltoe
				{
					OFFSET 0.041054 -0.060286 0.122042
					CHANNELS 3 Zrotation Yrotation Xrotation
					End Site
					{
						OFFSET 0.000000 0.000000 0.000000
					}
				}
			}
		}
	}
	JOINT rhip
	{
		OFFSET -0.060310 -0.090513 -0.013543
		CHANNELS 3 Zrotation Yrotation Xrotation
		JOINT rknee
		{
			OFFSET -0.043257 -0.383688 -0.004843
			CHANNELS 3 Zrotation Yrotation Xrotation
			JOINT rankle
			{
				OFFSET 0.019056 -0.420046 -0.034562
				CHANNELS 3 Zrotation Yrotation Xrotation
				JOINT rtoe
				{
					OFFSET -0.034840 -0.062106 0.130323
					CHANNELS 3 Zrotation Yrotation Xrotation
					End Site
					{
						OFFSET 0.000000 0.000000 0.000000
					}
				}
			}
		}
	}
	JOINT lowerback
	{
		OFFSET 0.004439 0.124404 -0.038385
		CHANNELS 3 Zrotation Yrotation Xrotation
		JOINT upperback
		{
			OFFSET 0.004488 0.137956 0.026820
			CHANNELS 3 Zrotation Yrotation Xrotation
			JOINT chest
			{
				OFFSET -0.002265 0.056032 0.002855
				CHANNELS 3 Zrotation Yrotation Xrotation
				JOINT lowerneck
				{
					OFFSET -0.013390 0.211636 -0.033468
					CHANNELS 3 Zrotation Yrotation Xrotation
					JOINT upperneck
					{
						OFFSET 0.010113 0.088937 0.050410
						CHANNELS 3 Zrotation Yrotation Xrotation
						End Site
						{
							OFFSET 0.000000 0.000000 0.000000
						}
					}
				}
				JOINT lclavicle
				{
					OFFSET 0.071702 0.114000 -0.018898
					CHANNELS 3 Zrotation Yrotation Xrotation
					JOINT lshoulder
					{
						OFFSET 0.122921 0.045205 -0.019046
						CHANNELS 3 Zrotation Yrotation Xrotation
						JOINT lelbow
						{
							OFFSET 0.255332 -0.015649 -0.022946
							CHANNELS 3 Zrotation Yrotation Xrotation
							JOINT lwrist
							{
								OFFSET 0.265709 0.012698 -0.007375
								CHANNELS 3 Zrotation Yrotation Xrotation
								End Site
								{
									OFFSET 0.000000 0.000000 0.000000
								}
							}
						}
					}
				}
				JOINT rclavicle
				{
					OFFSET -0.082954 0.112472 -0.023707
					CHANNELS 3 Zrotation Yrotation Xrotation
					JOINT rshoulder
					{
						OFFSET -0.113228 0.046853 -0.008472
						CHANNELS 3 Zrotation Yrotation Xrotation
						JOINT relbow
						{
							OFFSET -0.260127 -0.014369 -0.031269
							CHANNELS 3 Zrotation Yrotation Xrotation
							JOINT rwrist
							{
								OFFSET -0.269108 0.006794 -0.006027
								CHANNELS 3 Zrotation Yrotation Xrotation
								End Site
								{
									OFFSET 0.000000 0.000000 0.000000
								}
							}
						}
					}
				}
			}
		}
	}
}
MOTION
Frames: 14
Frame Time: 0.033333
-1.226390 0.107359 1.000795 86.402985 -1.111216 83.999875 -0.752927 0.786206 6.944225 -1.691185 -10.265617 5.026390 0.879394 7.579294 -11.795416 0.000000 -0.000000 0.000000 2.684955 -2.353338 2.311014 1.281242 -0.627408 12.695237 1.682413 -6.130599 -11.789235 0.000000 -0.000000 0.000000 1.793651 -0.119885 10.486394 0.920580 -1.131418 -1.192050 -0.597199 -1.007452 1.432589 2.556987 -10.543190 -7.921078 -2.649192 -16.741277 6.426553 -30.742182 2.032201 0.576061 -57.100191 -5.940636 10.246478 7.968131 -22.250450 6.078712 -4.682248 -3.337837 -4.674694 28.516736 4.330120 0.326277 55.895701 4.920251 12.743680 -12.085602 18.680183 -6.347637 3.580290 2.448443 -5.698386 
-1.227027 0.106687 1.001028 86.362404 -1.425245 83.883957 -1.098249 0.866042 7.021884 -1.658452 -10.259581 5.065940 1.239498 7.687725 -11.884555 0.000000 -0.000000 0.000000 2.432275 -1.803947 2.280470 1.334898 -0.861407 13.084709 1.926506 -6.591325 -12.067834 0.000000 -0.000000 0.000000 1.620715 -0.394153 10.649608 0.878724 -1.105478 -0.856866 -0.658580 -1.052176 1.351378 2.278746 -10.678492 -7.916449 -2.886387 -16.658446 6.465520 -30.656370 1.849620 0.480298 -56.714013 -6.036689 10.490246 8.116514 -22.917823 6.521696 -5.027639 -2.984682 -4.226036 28.098908 4.395709 0.471291 56.042041 5.394541 12.984351 -11.722721 18.163512 -7.020827 3.640116 2.676378 -5.387814 
-1.227939 0.105793 1.000829 86.074487 -1.447701 83.883556 -1.028384 0.924630 6.951931 -1.771383 -9.829004 5.090431 1.131470 7.762115 -12.103218 0.000000 -0.000000 0.000000 2.571476 -1.434904 2.018995 1.273443 -0.940888 13.409567 1.639138 -6.694837 -12.241230 0.000000 -0.000000 0.000000 1.447280 -0.455458 10.762330 1.036953 -1.064689 -0.646451 -0.556328 -0.602291 1.339919 2.403802 -10.313428 -7.423733 -2.922506 -16.314334 6.358289 -30.381903 1.174276 0.722694 -56.986700 -6.405114 10.674183 8.316693 -22.978039 5.988778 -4.651200 -3.405179 -4.727211 28.038822 4.548404 0.471124 56.164168 4.931485 13.007853 -12.414365 18.219881 -7.420790 3.267256 2.819058 -6.057256 
-1.227692 0.104232 1.000637 86.417938 -1.421753 83.999235 -0.956592 0.669368 6.387704 -1.782208 -9.775435 5.912794 1.046511 7.610123 -12.427199 0.000000 -0.000000 0.000000 2.676202 -1.690662 1.999087 1.319668 -0.986682 13.257638 1.446677 -6.728479 -12.282616 0.000000 -0.000000 0.000000 1.589512 -0.565168 10.641344 1.100100 -1.451422 -0.781256 -0.631665 -0.769711 1.375032 2.234986 -10.165221 -6.697011 -3.208702 -16.057152 6.867848 -30.006506 0.982081 1.103630 -56.797479 -6.665313 10.741670 8.474897 -23.573914 6.027831 -4.541208 -3.638138 -5.021000 27.802681 4.637723 0.639462 56.385922 4.924767 12.922558 -12.467149 17.612280 -7.304045 3.193541 2.908787 -6.520492 
-1.228465 0.103312 1.000653 86.345513 -1.415159 83.940078 -0.896310 0.706711 6.210635 -1.789740 -9.672006 6.280703 0.915856 7.439714 -12.405813 0.000000 -0.000000 0.000000 2.763514 -1.784412 1.947491 1.280368 -0.860664 13.377530 1.499648 -6.723445 -12.308133 0.000000 -0.000000 0.000000 1.643967 -0.729382 10.986188 1.129091 -1.471139 -0.757640 -0.582170 -0.802960 1.621030 2.144089 -9.667412 -6.855293 -3.249351 -15.472365 6.788981 -30.078051 1.150150 0.575656 -56.438416 -7.032179 10.623186 8.381800 -24.043085 6.080693 -4.725663 -3.549136 -4.720682 27.785049 4.401954 0.247821 56.168858 5.282552 12.954489 -12.267094 17.637308 -7.288011 3.471767 3.006262 -5.995301 
-1.227936 0.101801 1.000301 86.102075 -1.465391 83.841079 -0.941528 0.706097 6.068377 -1.700460 -9.611243 6.877875 0.972678 7.708763 -12.667983 0.000000 -0.000000 0.000000 2.787750 -1.636799 2.082212 1.309692 -0.995288 13.450178 1.646726 -6.537390 -12.353099 0.000000 -0.000000 0.000000 1.623807 -0.686348 11.102832 1.192053 -1.528462 -0.677320 -0.523494 -0.902978 1.566384 1.987905 -9.345418 -6.042544 -3.548214 -15.071952 7.225209 -30.132647 1.153197 0.658039 -56.029964 -7.201991 10.491510 8.584701 -24.660189 5.443406 -4.372363 -3.644468 -4.631679 27.820965 4.478796 0.535542 56.058795 5.236356 12.910002 -12.457590 17.568661 -7.802177 3.301998 3.084252 -5.923756 
-1.227014 0.099994 1.000259 85.974423 -1.535512 83.647528 -0.866150 0.692911 6.147159 -1.858734 -9.666994 7.359216 0.985337 7.814219 -12.610156 0.000000 -0.000000 0.000000 2.729862 -1.774161 2.542879 1.424570 -0.819810 13.187197 1.598591 -6.402412 -12.334284 0.000000 -0.000000 0.000000 1.624643 -0.590960 11.026418 1.274245 -1.723982 -0.325331 -0.501134 -0.929367 1.764424 1.606378 -8.577849 -5.195502 -3.559460 -14.250866 7.360401 -29.979300 0.978042 0.595285 -55.725740 -7.477979 10.458982 8.575138 -25.136423 5.419307 -4.162054 -3.636114 -4.904885 27.932503 4.353979 0.517342 55.833677 5.372540 12.847949 -12.347584 17.887633 -7.699691 3.118759 3.071414 -6.097446 
-1.228467 0.098266 0.999731 85.842389 -1.569965 83.850530 -0.945901 0.357253 5.112312 -1.916682 -9.317989 8.807193 1.187293 8.061184 -12.812093 0.000000 -0.000000 0.000000 2.828762 -1.593616 2.054711 1.485673 -0.874712 13.550985 1.491817 -6.449449 -12.449242 0.000000 -0.000000 0.000000 1.670589 -0.704609 11.219664 1.284742 -1.798392 -0.679131 -0.596675 -0.854369 1.789691 1.432261 -7.412046 -4.047841 -3.704337 -12.797707 8.364700 -29.508492 0.826370 0.869078 -55.727371 -7.744977 10.451060 8.941547 -25.633315 5.098244 -4.403258 -3.462615 -5.187969 27.880792 4.510198 0.738208 56.005506 5.581749 13.036523 -12.610155 17.723752 -7.704543 3.481306 2.787107 -6.420627 
-1.228828 0.096348 0.999656 85.552089 -1.722938 83.793256 -1.065144 0.107489 4.282186 -2.114063 -9.068964 10.631205 1.220540 8.289967 -13.330512 0.000000 -0.000000 0.000000 2.776328 -1.569934 1.894959 1.533733 -0.670578 13.915892 1.497272 -6.300591 -12.593263 0.000000 -0.000000 0.000000 1.575789 -0.651011 11.593584 1.338620 -1.797598 -1.197508 -0.531718 -1.065383 1.903566 1.357007 -5.763123 -2.851351 -3.945592 -11.038514 10.056036 -29.396238 0.974722 1.019201 -55.589516 -7.923617 10.268362 9.254009 -25.894949 4.615034 -4.394085 -3.663486 -5.497602 28.038468 4.411073 1.002347 55.726261 5.959483 13.268799 -12.470808 17.553036 -7.637322 3.426708 2.846517 -6.641680 
-1.228220 0.093825 0.999256 85.392856 -1.753022 83.279695 -1.068295 -0.118034 2.837698 -2.496802 -8.659735 14.532213 1.379654 8.477177 -13.273650 0.000000 -0.000000 0.000000 2.787373 -1.877525 2.524329 1.620329 -0.518749 13.796510 1.257880 -5.894818 -12.540598 0.000000 -0.000000 0.000000 1.697591 -0.652209 12.119774 1.425893 -2.042167 -1.340247 -0.591406 -0.929908 2.045312 1.183234 -3.179796 -0.624810 -3.795215 -7.825428 12.329411 -28.960857 1.004388 1.433065 -55.709859 -8.326263 10.039681 9.732813 -26.581500 4.310741 -4.358676 -3.382324 -5.776713 28.142046 3.940886 1.089370 55.553693 6.415524 13.167061 -12.357839 17.628378 -7.776274 3.635395 3.041352 -6.923823 
-1.229061 0.091801 0.999725 85.130463 -1.929176 82.821164 -1.206243 -0.871322 0.798894 -3.149409 -7.630320 19.224935 1.044854 8.637690 -12.616534 0.000000 -0.000000 0.000000 2.677526 -1.694892 2.941738 1.722865 -0.403386 13.808194 1.077615 -5.728463 -12.535762 0.000000 -0.000000 0.000000 1.766350 -0.445751 12.902479 1.505556 -2.141477 -1.422960 -0.532965 -1.051690 2.191049 0.752184 -0.967489 0.814701 -3.661903 -5.060675 13.967866 -28.848140 1.132163 1.453768 -55.564281 -8.488856 9.845404 9.762561 -27.305204 4.379239 -4.918063 -3.587275 -6.378803 28.015629 3.751464 1.202882 55.607521 6.989691 13.297674 -12.439748 17.791934 -7.508737 3.583086 2.770100 -7.182945 
-1.230370 0.089830 0.999884 84.952056 -2.071514 82.382058 -0.764374 -1.689986 -2.349380 -4.281740 -5.512470 25.535270 -0.175859 7.644177 -10.795149 0.000000 -0.000000 0.000000 2.616154 -1.941614 3.325378 1.718019 -0.282259 13.787519 0.609160 -5.454781 -12.581014 0.000000 -0.000000 0.000000 1.923111 -0.065639 13.847919 1.626762 -2.308588 -1.747147 -0.576548 -1.009920 2.206773 0.451838 0.658444 2.620436 -3.624081 -2.870657 15.545871 -28.678852 1.106464 1.690734 -55.477016 -8.706429 9.760153 9.969758 -27.868521 4.278932 -4.979101 -3.756899 -6.718871 28.204262 3.564460 1.992453 55.360268 7.617225 13.261339 -12.852265 17.987218 -7.842857 3.391534 3.002981 -7.443826 
-1.231159 0.087572 0.999901 84.615954 -2.317807 81.529567 0.119027 -2.004271 -6.037754 -5.921093 -3.172455 33.142426 -2.043228 6.348654 -6.828638 0.000000 -0.000000 0.000000 2.221950 -2.512096 4.236822 1.935038 -0.087351 13.670521 -0.005492 -4.668938 -12.629421 0.000000 -0.000000 0.000000 1.921712 0.746082 14.922120 1.785972 -2.490817 -1.415852 -0.519004 -0.953893 2.297300 0.104069 1.959390 4.253904 -3.250996 -1.020818 16.108593 -28.605830 0.742766 1.978780 -55.461065 -9.054166 9.556646 10.673654 -28.493526 3.841897 -4.072004 -3.578335 -6.709420 28.322014 3.426244 2.459044 54.843487 8.179093 12.927058 -12.753788 18.661594 -7.830037 2.972164 3.031376 -7.923836 
-1.232178 0.085449 0.999452 84.374755 -2.506912 81.020626 1.296469 -2.266699 -11.275483 -7.000904 0.110736 41.798417 -4.614284 5.210885 0.589177 0.000000 -0.000000 0.000000 1.993303 -2.689882 4.712559 2.121213 -0.114184 13.726723 -0.998895 -4.115024 -13.009441 0.000000 -0.000000 0.000000 1.994902 1.357576 15.938632 1.999260 -2.633175 -1.048326 -0.518591 -0.578754 2.270058 -0.522226 2.952452 4.998549 -2.634174 0.258580 16.613340 -28.585834 0.695062 2.037432 -55.308576 -9.119934 9.630262 10.850559 -29.974699 3.993709 -4.574057 -3.934449 -7.572530 28.212324 3.356808 3.378886 54.600597 8.678699 12.661101 -13.089687 19.735783 -7.955323 3.077705 3.567480 -8.529380 
